<?xml version="1.0" encoding="utf-8"?>
<!-- Generator: Adobe Illustrator 15.1.0, SVG Export Plug-In . SVG Version: 6.00 Build 0)  -->
<!DOCTYPE svg PUBLIC "-//W3C//DTD SVG 1.1//EN" "http://www.w3.org/Graphics/SVG/1.1/DTD/svg11.dtd">
<svg version="1.1" id="Layer_1" xmlns="http://www.w3.org/2000/svg" xmlns:xlink="http://www.w3.org/1999/xlink" x="0px" y="0px"
	 width="512px" height="512px" viewBox="0 0 512 512" enable-background="new 0 0 512 512" xml:space="preserve">
<path fill="#111111" d="M499.284,149.071c-5.686-4.533-12.226-6.794-19.59-6.794c-7.382,0-124.273,31.086-129.669,35.648
	c-2.207,1.847-3.938,3.805-5.246,5.849c-1.278-2.455-3.209-4.694-5.802-6.71c-5.105-3.963-122.117-34.787-130.095-34.787
	c-7.357,0-28.039,2.027-33.14,6.025c-3.055,2.416-10.676,2.754-13.161,0.77c-5.687-4.533-12.228-6.794-19.596-6.794
	c-7.382,0-124.383,35.891-129.777,40.45C7.799,187.259,5,192.375,5,198.062v273.797c0,5.687,2.668,10.512,7.785,14.486
	c5.101,3.961,107.758,20.374,115.732,20.374c7.36,0,13.653-2.027,18.759-6.025c5.117-4.055,9.19-7.225,9.19-12.975l0.127-197.224
	c0,0,0.598-12.142,12.164-12.142c10.98,0,12.134,12.157,12.134,12.157l-0.117,194.11c0,5.685,2.846,10.771,8.517,15.304
	c5.688,4.531,12.227,6.794,19.591,6.794c7.387,0,110.238-21.482,115.641-26.038c5.4-4.532,8.477-9.648,8.477-15.336v-163.8
	c0,0-0.542-11.341,10.294-11.341c10.833,0,11.706,11.333,11.706,11.333v170.321c0,5.687,3.236,10.512,8.344,14.486
	c5.109,3.961,108.039,20.374,116.018,20.374c7.349,0,13.796-2.027,18.899-6.025c5.11-4.055,9.257-7.225,9.257-12.975l0.239-323.345
	C507.757,158.689,504.951,153.603,499.284,149.071z"/>
</svg>
