<?xml version="1.0" encoding="utf-8"?>
<!-- Generator: Adobe Illustrator 15.1.0, SVG Export Plug-In . SVG Version: 6.00 Build 0)  -->
<!DOCTYPE svg PUBLIC "-//W3C//DTD SVG 1.1//EN" "http://www.w3.org/Graphics/SVG/1.1/DTD/svg11.dtd">
<svg version="1.1" id="Layer_1" xmlns="http://www.w3.org/2000/svg" xmlns:xlink="http://www.w3.org/1999/xlink" x="0px" y="0px"
	 width="48px" height="182px" viewBox="0 0 48 182" enable-background="new 0 0 48 182" xml:space="preserve">
<g>
	<path fill="#111111" d="M46.17,142.059c0.321,0.38,0.48,0.83,0.48,1.351c0,0.519-0.159,0.979-0.479,1.38
		c-0.319,0.399-0.678,0.6-1.078,0.6H29.172c-2.314,0-4.16,0.71-5.536,2.131c-1.376,1.419-2.065,3.068-2.065,4.949
		c0,1.88,0.709,3.49,2.125,4.83c1.417,1.34,3.182,2.01,5.297,2.01h16.162c0.998,0,1.496,0.64,1.496,1.92
		c0,1.32-0.498,1.98-1.496,1.98H28.933c-2.154,0-3.921,0.709-5.297,2.13c-1.376,1.419-2.065,3.05-2.065,4.89
		c0,1.801,0.679,3.391,2.035,4.771c1.357,1.38,3.213,2.069,5.566,2.069h15.922c0.4,0,0.759,0.189,1.078,0.57
		c0.319,0.38,0.479,0.83,0.479,1.35c0,0.561-0.159,1.03-0.48,1.41c-0.319,0.381-0.68,0.57-1.08,0.57H29.131c-3.4,0-6.121-1-8.16-3
		c-2.041-2-3.061-4.359-3.061-7.08c0-1.8,0.516-3.52,1.545-5.16s2.533-2.96,4.51-3.959c-1.816-0.721-3.279-1.841-4.39-3.36
		c-1.11-1.521-1.665-3.24-1.665-5.16c0-1.841,0.436-3.45,1.307-4.83s1.975-2.431,3.312-3.149H19.73c-0.405,0-0.75-0.181-1.035-0.541
		c-0.282-0.359-0.425-0.801-0.425-1.319c0-0.562,0.141-1.021,0.42-1.38c0.28-0.36,0.62-0.541,1.021-0.541H45.09
		C45.49,141.488,45.851,141.678,46.17,142.059z"/>
	<path fill="#111111" d="M35.67,135.309h-6.539c-3.04,0-5.67-1.119-7.891-3.36c-2.22-2.239-3.33-4.899-3.33-7.979
		s1.102-5.761,3.301-8.041c2.199-2.279,4.84-3.42,7.92-3.42h6.539c3,0,5.65,1.15,7.951,3.45c2.3,2.301,3.449,4.971,3.449,8.011
		c0,3-1.149,5.64-3.449,7.92C41.32,134.168,38.67,135.309,35.67,135.309z M35.652,131.408c2.029,0,3.83-0.729,5.401-2.189
		s2.356-3.211,2.356-5.25c0-2.08-0.785-3.86-2.356-5.34c-1.571-1.48-3.372-2.221-5.401-2.221h-6.504c-1.948,0-3.699,0.75-5.25,2.25
		c-1.552,1.5-2.328,3.27-2.328,5.311c0,2.039,0.776,3.79,2.328,5.25c1.551,1.46,3.302,2.189,5.25,2.189H35.652z"/>
	<path fill="#111111" d="M42.75,107.889c-0.398,0-0.799-0.139-1.199-0.42c-0.4-0.279-0.601-0.6-0.601-0.959
		c0-0.279,0.231-0.721,0.69-1.32c0.46-0.6,0.93-1.46,1.41-2.58c0.479-1.119,0.72-2.461,0.72-4.02c0-2.12-0.399-3.681-1.2-4.681
		c-0.8-0.999-1.82-1.5-3.061-1.5c-1.439,0-2.59,0.51-3.45,1.53c-0.86,1.02-1.509,2.251-1.945,3.69
		c-0.437,1.44-0.878,2.891-1.32,4.351c-0.442,1.459-1.213,2.699-2.313,3.719c-1.1,1.02-2.57,1.529-4.41,1.529
		c-2.199,0-4.109-0.789-5.73-2.369c-1.619-1.58-2.43-3.949-2.43-7.11c0-1.959,0.311-3.789,0.93-5.49
		c0.621-1.699,1.291-2.55,2.011-2.55c0.399,0,0.84,0.16,1.319,0.48c0.48,0.32,0.721,0.7,0.721,1.14c0,0.12-0.279,0.86-0.84,2.22
		c-0.561,1.36-0.84,2.74-0.84,4.141c0,2,0.471,3.5,1.41,4.5c0.94,1,1.998,1.5,3.174,1.5c1.215,0,2.176-0.519,2.881-1.556
		c0.705-1.036,1.271-2.277,1.699-3.72c0.427-1.441,0.859-2.904,1.298-4.386s1.309-2.722,2.608-3.721
		c1.302-0.999,2.984-1.498,5.049-1.498c2.4,0,4.291,0.85,5.67,2.55c1.381,1.7,2.07,4.07,2.07,7.109c0,2.641-0.47,4.871-1.41,6.69
		C44.721,106.98,43.75,107.889,42.75,107.889z"/>
	<path fill="#111111" d="M45.092,82.989H2.369c-0.4,0-0.739-0.18-1.019-0.54C1.07,82.09,0.93,81.63,0.93,81.069
		c0-0.56,0.141-1.029,0.421-1.41c0.28-0.379,0.62-0.569,1.021-0.569h20.157c-1.296-0.68-2.39-1.71-3.281-3.09
		c-0.891-1.381-1.337-2.99-1.337-4.83c0-2.881,1.102-5.37,3.301-7.471c2.199-2.1,4.84-3.149,7.92-3.149H45.09
		c0.48,0,0.861,0.19,1.141,0.569c0.28,0.381,0.42,0.851,0.42,1.41c0,0.48-0.14,0.921-0.419,1.32c-0.279,0.4-0.658,0.6-1.138,0.6
		H29.172c-1.955,0-3.711,0.741-5.268,2.221c-1.556,1.479-2.334,3.22-2.334,5.22c0,1.881,0.699,3.55,2.096,5.01
		c1.396,1.461,3.232,2.19,5.506,2.19h15.922c0.4,0,0.759,0.2,1.078,0.6c0.319,0.4,0.479,0.86,0.479,1.38
		c0,0.521-0.159,0.971-0.479,1.351C45.852,82.8,45.492,82.989,45.092,82.989z"/>
	<path fill="#111111" d="M35.791,53.529H19.771c-0.36,0-0.7-0.188-1.021-0.569c-0.319-0.38-0.479-0.85-0.479-1.41
		c0-0.48,0.16-0.92,0.479-1.32c0.319-0.399,0.658-0.6,1.017-0.6h15.982c1.995,0,3.771-0.74,5.327-2.22s2.334-3.24,2.334-5.28
		s-0.777-3.8-2.334-5.28c-1.557-1.479-3.332-2.22-5.327-2.22H19.707c-0.398,0-0.738-0.2-1.018-0.601
		c-0.279-0.398-0.419-0.859-0.419-1.38c0-0.519,0.141-0.969,0.42-1.35c0.28-0.38,0.62-0.57,1.021-0.57h16.08
		c3,0,5.63,1.131,7.889,3.391c2.262,2.26,3.391,4.93,3.391,8.01c0,3.12-1.129,5.8-3.391,8.04
		C41.421,52.41,38.791,53.529,35.791,53.529z"/>
	<path fill="#111111" d="M45.09,23.471H19.711c-0.44,0-0.79-0.18-1.051-0.54c-0.26-0.359-0.39-0.819-0.39-1.38
		c0-0.479,0.143-0.899,0.425-1.26c0.285-0.36,0.63-0.54,1.035-0.54h2.798c-1.296-0.68-2.39-1.72-3.281-3.12
		c-0.891-1.399-1.337-3.039-1.337-4.92c0-2.88,1.102-5.379,3.301-7.5c2.199-2.12,4.84-3.18,7.92-3.18H45.09
		c0.48,0,0.861,0.2,1.141,0.6c0.28,0.4,0.42,0.86,0.42,1.38c0,0.48-0.14,0.921-0.419,1.32c-0.279,0.4-0.658,0.6-1.138,0.6H29.172
		c-1.955,0-3.711,0.741-5.268,2.221c-1.556,1.479-2.334,3.239-2.334,5.279c0,1.881,0.699,3.54,2.096,4.98
		c1.396,1.439,3.232,2.16,5.506,2.16h15.922c0.4,0,0.759,0.2,1.078,0.6c0.319,0.4,0.479,0.86,0.479,1.38
		c0,0.561-0.159,1.021-0.48,1.38C45.851,23.291,45.49,23.471,45.09,23.471z"/>
</g>
</svg>
