<?xml version="1.0" encoding="utf-8"?>
<!-- Generator: Adobe Illustrator 15.1.0, SVG Export Plug-In . SVG Version: 6.00 Build 0)  -->
<!DOCTYPE svg PUBLIC "-//W3C//DTD SVG 1.1//EN" "http://www.w3.org/Graphics/SVG/1.1/DTD/svg11.dtd">
<svg version="1.1" id="Layer_1" xmlns="http://www.w3.org/2000/svg" xmlns:xlink="http://www.w3.org/1999/xlink" x="0px" y="0px"
	 width="182px" height="48px" viewBox="0 0 182 48" enable-background="new 0 0 182 48" xml:space="preserve">
<g>
	<path fill="#111111" d="M39.941,46.17c-0.38,0.321-0.83,0.48-1.351,0.48c-0.519,0-0.979-0.159-1.38-0.479
		c-0.399-0.319-0.6-0.678-0.6-1.078V29.172c0-2.314-0.71-4.16-2.131-5.536c-1.419-1.376-3.068-2.065-4.949-2.065
		c-1.88,0-3.49,0.709-4.83,2.125c-1.34,1.417-2.01,3.182-2.01,5.297v16.162c0,0.998-0.64,1.496-1.92,1.496
		c-1.32,0-1.98-0.498-1.98-1.496V28.933c0-2.154-0.709-3.921-2.13-5.297c-1.419-1.376-3.05-2.065-4.89-2.065
		c-1.801,0-3.391,0.679-4.771,2.035c-1.38,1.357-2.069,3.213-2.069,5.566v15.922c0,0.4-0.189,0.759-0.57,1.078
		c-0.38,0.319-0.83,0.479-1.35,0.479c-0.561,0-1.03-0.159-1.41-0.48c-0.381-0.319-0.57-0.68-0.57-1.08V29.131c0-3.4,1-6.121,3-8.16
		c2-2.041,4.359-3.061,7.08-3.061c1.8,0,3.52,0.516,5.16,1.545s2.96,2.533,3.959,4.51c0.721-1.816,1.841-3.279,3.36-4.39
		c1.521-1.11,3.24-1.665,5.16-1.665c1.841,0,3.45,0.436,4.83,1.307s2.431,1.975,3.149,3.312V19.73c0-0.405,0.181-0.75,0.541-1.035
		c0.359-0.282,0.801-0.425,1.319-0.425c0.562,0,1.021,0.141,1.38,0.42c0.36,0.28,0.541,0.62,0.541,1.021V45.09
		C40.512,45.49,40.322,45.851,39.941,46.17z"/>
	<path fill="#111111" d="M46.691,35.67v-6.539c0-3.04,1.119-5.67,3.36-7.891c2.239-2.22,4.899-3.33,7.979-3.33
		s5.761,1.102,8.041,3.301c2.279,2.199,3.42,4.84,3.42,7.92v6.539c0,3-1.15,5.65-3.45,7.951c-2.301,2.3-4.971,3.449-8.011,3.449
		c-3,0-5.64-1.149-7.92-3.449C47.832,41.32,46.691,38.67,46.691,35.67z M50.592,35.652c0,2.029,0.729,3.83,2.189,5.401
		s3.211,2.356,5.25,2.356c2.08,0,3.86-0.785,5.34-2.356c1.48-1.571,2.221-3.372,2.221-5.401v-6.504c0-1.948-0.75-3.699-2.25-5.25
		c-1.5-1.552-3.27-2.328-5.311-2.328c-2.039,0-3.79,0.776-5.25,2.328c-1.46,1.551-2.189,3.302-2.189,5.25V35.652z"/>
	<path fill="#111111" d="M74.111,42.75c0-0.398,0.139-0.799,0.42-1.199c0.279-0.4,0.6-0.601,0.959-0.601
		c0.279,0,0.721,0.231,1.32,0.69c0.6,0.46,1.46,0.93,2.58,1.41c1.119,0.479,2.461,0.72,4.02,0.72c2.12,0,3.681-0.399,4.681-1.2
		c0.999-0.8,1.5-1.82,1.5-3.061c0-1.439-0.51-2.59-1.53-3.45c-1.02-0.86-2.251-1.509-3.69-1.945c-1.44-0.437-2.891-0.878-4.351-1.32
		c-1.459-0.442-2.699-1.213-3.719-2.313c-1.02-1.1-1.529-2.57-1.529-4.41c0-2.199,0.789-4.109,2.369-5.73
		c1.58-1.619,3.949-2.43,7.11-2.43c1.959,0,3.789,0.311,5.49,0.93c1.699,0.621,2.55,1.291,2.55,2.011c0,0.399-0.16,0.84-0.48,1.319
		c-0.32,0.48-0.7,0.721-1.14,0.721c-0.12,0-0.86-0.279-2.22-0.84c-1.36-0.561-2.74-0.84-4.141-0.84c-2,0-3.5,0.471-4.5,1.41
		c-1,0.94-1.5,1.998-1.5,3.174c0,1.215,0.519,2.176,1.556,2.881c1.036,0.705,2.277,1.271,3.72,1.699
		c1.441,0.427,2.904,0.859,4.386,1.298s2.722,1.309,3.721,2.608c0.999,1.302,1.498,2.984,1.498,5.049c0,2.4-0.85,4.291-2.55,5.67
		c-1.7,1.381-4.07,2.07-7.109,2.07c-2.641,0-4.871-0.47-6.69-1.41C75.02,44.721,74.111,43.75,74.111,42.75z"/>
	<path fill="#111111" d="M99.011,45.092V2.369c0-0.4,0.18-0.739,0.54-1.019c0.359-0.28,0.819-0.421,1.38-0.421
		c0.56,0,1.029,0.141,1.41,0.421c0.379,0.28,0.569,0.62,0.569,1.021v20.157c0.68-1.296,1.71-2.39,3.09-3.281
		c1.381-0.891,2.99-1.337,4.83-1.337c2.881,0,5.37,1.102,7.471,3.301c2.1,2.199,3.149,4.84,3.149,7.92V45.09
		c0,0.48-0.19,0.861-0.569,1.141c-0.381,0.28-0.851,0.42-1.41,0.42c-0.48,0-0.921-0.14-1.32-0.419c-0.4-0.279-0.6-0.658-0.6-1.138
		V29.172c0-1.955-0.741-3.711-2.221-5.268c-1.479-1.556-3.22-2.334-5.22-2.334c-1.881,0-3.55,0.699-5.01,2.096
		c-1.461,1.396-2.19,3.232-2.19,5.506v15.922c0,0.4-0.2,0.759-0.6,1.078c-0.4,0.319-0.86,0.479-1.38,0.479
		c-0.521,0-0.971-0.159-1.351-0.479C99.2,45.852,99.011,45.492,99.011,45.092z"/>
	<path fill="#111111" d="M128.471,35.791V19.771c0-0.36,0.188-0.7,0.569-1.021c0.38-0.319,0.85-0.479,1.41-0.479
		c0.48,0,0.92,0.16,1.32,0.479c0.399,0.319,0.6,0.658,0.6,1.017v15.982c0,1.995,0.74,3.771,2.22,5.327s3.24,2.334,5.28,2.334
		s3.8-0.777,5.28-2.334c1.479-1.557,2.22-3.332,2.22-5.327V19.707c0-0.398,0.2-0.738,0.601-1.018
		c0.398-0.279,0.859-0.419,1.38-0.419c0.519,0,0.969,0.141,1.35,0.42c0.38,0.28,0.57,0.62,0.57,1.021v16.08
		c0,3-1.131,5.63-3.391,7.889c-2.26,2.262-4.93,3.391-8.01,3.391c-3.12,0-5.8-1.129-8.04-3.391
		C129.59,41.421,128.471,38.791,128.471,35.791z"/>
	<path fill="#111111" d="M158.529,45.09V19.711c0-0.44,0.18-0.79,0.54-1.051c0.359-0.26,0.819-0.39,1.38-0.39
		c0.479,0,0.899,0.143,1.26,0.425c0.36,0.285,0.54,0.63,0.54,1.035v2.798c0.68-1.296,1.72-2.39,3.12-3.281
		c1.399-0.891,3.039-1.337,4.92-1.337c2.88,0,5.379,1.102,7.5,3.301c2.12,2.199,3.18,4.84,3.18,7.92V45.09
		c0,0.48-0.2,0.861-0.6,1.141c-0.4,0.28-0.86,0.42-1.38,0.42c-0.48,0-0.921-0.14-1.32-0.419c-0.4-0.279-0.6-0.658-0.6-1.138V29.172
		c0-1.955-0.741-3.711-2.221-5.268c-1.479-1.556-3.239-2.334-5.279-2.334c-1.881,0-3.54,0.699-4.98,2.096
		c-1.439,1.396-2.16,3.232-2.16,5.506v15.922c0,0.4-0.2,0.759-0.6,1.078c-0.4,0.319-0.86,0.479-1.38,0.479
		c-0.561,0-1.021-0.159-1.38-0.48C158.709,45.851,158.529,45.49,158.529,45.09z"/>
</g>
</svg>
